<svg width="100%" height="100%" id="svg" viewBox="0 0 1440 490" xmlns="http://www.w3.org/2000/svg" class="transition duration-300 ease-in-out delay-150"><defs><linearGradient id="gradient" x1="0%" y1="50%" x2="100%" y2="50%"><stop offset="5%" stop-color="#000000"></stop><stop offset="95%" stop-color="#ffffff"></stop></linearGradient></defs><path d="M 0,500 C 0,500 0,166 0,166 C 84.0974358974359,193.4025641025641 168.1948717948718,220.80512820512823 246,197 C 323.8051282051282,173.19487179487177 395.31794871794864,98.18205128205126 476,106 C 556.6820512820514,113.81794871794874 646.5333333333333,204.46666666666667 735,216 C 823.4666666666667,227.53333333333333 910.5487179487179,159.95128205128208 992,140 C 1073.451282051282,120.04871794871794 1149.271794871795,147.7282051282051 1223,160 C 1296.728205128205,172.2717948717949 1368.3641025641025,169.13589743589745 1440,166 C 1440,166 1440,500 1440,500 Z" stroke="none" stroke-width="0" fill="url(#gradient)" fill-opacity="0.53" class="transition-all duration-300 ease-in-out delay-150 path-0"></path><defs><linearGradient id="gradient" x1="0%" y1="50%" x2="100%" y2="50%"><stop offset="5%" stop-color="#000000"></stop><stop offset="95%" stop-color="#ffffff"></stop></linearGradient></defs><path d="M 0,500 C 0,500 0,333 0,333 C 95.64102564102564,308.16410256410256 191.28205128205127,283.3282051282052 275,295 C 358.71794871794873,306.6717948717948 430.51282051282055,354.85128205128206 505,354 C 579.4871794871794,353.14871794871794 656.6666666666667,303.26666666666665 731,304 C 805.3333333333333,304.73333333333335 876.8205128205127,356.0820512820513 963,374 C 1049.1794871794873,391.9179487179487 1150.051282051282,376.4051282051282 1232,364 C 1313.948717948718,351.5948717948718 1376.974358974359,342.2974358974359 1440,333 C 1440,333 1440,500 1440,500 Z" stroke="none" stroke-width="0" fill="url(#gradient)" fill-opacity="1" class="transition-all duration-300 ease-in-out delay-150 path-1"></path></svg>